<svg width="24" height="24" viewBox="0 0 24 24" fill="none" xmlns="http://www.w3.org/2000/svg">
<path d="M8.18937 16.874C8.49097 16.874 8.75776 16.7696 8.95496 16.5607L11.9941 13.52L15.0333 16.5607C15.2305 16.7579 15.4857 16.874 15.7988 16.874C16.3904 16.874 16.8544 16.4098 16.8544 15.8179C16.8544 15.5278 16.7384 15.2725 16.5412 15.0752L13.4905 12.0229L16.5412 8.95911C16.7616 8.73861 16.866 8.5065 16.866 8.22797C16.866 7.63609 16.402 7.17188 15.8104 7.17188C15.5204 7.17188 15.2769 7.26472 15.0565 7.48522L11.9941 10.5374L8.93176 7.49683C8.73456 7.28793 8.49097 7.18348 8.18937 7.18348C7.59778 7.18348 7.13379 7.63609 7.13379 8.22797C7.13379 8.5181 7.24979 8.77342 7.45858 8.97071L10.4977 12.0229L7.45858 15.0868C7.24979 15.2725 7.13379 15.5394 7.13379 15.8179C7.13379 16.4098 7.59778 16.874 8.18937 16.874Z" fill="white"/>
</svg>
